<svg xmlns="http://www.w3.org/2000/svg" viewBox="0 0 110 110" enable-background="new 0 0 110 110"><g><path d="M54.209 105.701c-5.685 0-10.295-4.609-10.295-10.295 0-5.687 4.609-10.295 10.295-10.295 5.688 0 10.297 4.608 10.297 10.295 0 5.686-4.609 10.295-10.297 10.295zm-41.181 0c-5.686 0-10.295-4.609-10.295-10.295 0-5.687 4.609-10.295 10.295-10.295 5.688 0 10.297 4.608 10.297 10.295-.001 5.686-4.61 10.295-10.297 10.295zm82.363-41.182c-5.686 0-10.295-4.609-10.295-10.296 0-5.686 4.609-10.295 10.295-10.295 5.685 0 10.295 4.609 10.295 10.295 0 5.687-4.61 10.296-10.295 10.296zm-41.182 0c-5.685 0-10.295-4.609-10.295-10.296 0-5.686 4.609-10.295 10.295-10.295 5.688 0 10.297 4.609 10.297 10.295 0 5.687-4.609 10.296-10.297 10.296zm-41.181 0c-5.686 0-10.295-4.609-10.295-10.296 0-5.686 4.609-10.295 10.295-10.295 5.688 0 10.297 4.609 10.297 10.295-.001 5.687-4.61 10.296-10.297 10.296zm82.363-41.181c-5.686 0-10.295-4.61-10.295-10.296 0-5.685 4.609-10.295 10.295-10.295 5.685 0 10.295 4.61 10.295 10.295s-4.61 10.296-10.295 10.296zm-41.182 0c-5.685 0-10.295-4.61-10.295-10.296 0-5.685 4.609-10.295 10.295-10.295 5.688 0 10.297 4.61 10.297 10.295s-4.609 10.296-10.297 10.296zm-41.181 0c-5.686 0-10.295-4.61-10.295-10.296 0-5.685 4.609-10.295 10.295-10.295 5.688 0 10.297 4.61 10.297 10.295-.001 5.685-4.61 10.296-10.297 10.296zm82.363 61.773c5.685 0 10.295 4.608 10.295 10.295 0 5.686-4.609 10.295-10.295 10.295s-10.295-4.609-10.295-10.295 4.609-10.295 10.295-10.295z" fill="#0092CE"/><path fill="#F2E500" d="M105.686 36.579l-69.121 69.123h-33.832v-33.832l69.123-69.123h33.83v33.832z"/><path d="M2.733 95.406c0-5.687 4.609-10.295 10.295-10.295 5.688 0 10.297 4.608 10.297 10.295 0 5.686-4.609 10.295-10.297 10.296-5.686-.001-10.295-4.61-10.295-10.296zm10.295-30.887c-.894 0-1.75-.15-2.578-.365l12.508-12.51c.217.829.367 1.684.367 2.579-.001 5.687-4.61 10.296-10.297 10.296zm31.251 33.466c-.215-.829-.365-1.684-.365-2.579 0-5.687 4.609-10.295 10.295-10.295.897 0 1.75.149 2.58.364l-12.51 12.51zm51.112-54.056c.896 0 1.752.151 2.58.366l-12.51 12.509c-.215-.829-.365-1.683-.365-2.58 0-5.686 4.609-10.295 10.295-10.295zm-43.76-20.958l12.508-12.509c.217.829.367 1.683.367 2.58 0 5.685-4.609 10.295-10.297 10.295-.894.001-1.75-.151-2.578-.366zm2.578 41.548c-5.685 0-10.295-4.609-10.295-10.296 0-5.686 4.609-10.295 10.295-10.295 5.688 0 10.297 4.609 10.297 10.295 0 5.687-4.609 10.296-10.297 10.296zm30.887-51.476c0-5.686 4.609-10.296 10.295-10.296 5.685 0 10.295 4.608 10.295 10.295v.001c0 5.686-4.609 10.295-10.295 10.295s-10.295-4.611-10.295-10.295z" fill="#007067"/></g></svg>